<?xml version="1.0" encoding="UTF-8"?>
<svg version="1.1" xmlns="http://www.w3.org/2000/svg" width="80" height="80" viewBox="0 0 1024 1024">
    <path d="M0,0 L736,0 L736,518 L720,512 L671,492 L629,475 L597,462 L565,449 L528,434 L513,428 L501,423 L464,408 L442,399 L418,389 L416,388 L416,377 L417,367 L417,299 L413,265 L409,246 L403,228 L393,209 L384,197 L375,188 L362,179 L346,171 L326,165 L312,162 L288,160 L151,159 L151,518 L150,518 L149,280 L107,263 L87,255 L75,250 L21,228 L-26,209 L-80,187 L-127,168 L-154,157 L-154,154 Z " fill="#4FD05E" transform="translate(222,175)"/>
    <path d="M0,0 L9,3 L61,24 L98,39 L152,61 L199,80 L238,96 L251,101 L290,117 L305,123 L306,124 L306,362 L452,361 L473,358 L488,354 L504,348 L519,340 L529,332 L532,329 L534,329 L536,325 L544,316 L554,299 L562,278 L567,259 L571,232 L576,233 L600,243 L632,256 L664,269 L677,274 L711,288 L738,299 L775,314 L822,333 L876,355 L891,361 L891,364 L737,518 L0,518 Z " fill="#2BB53D" transform="translate(66,331)"/>
    <path d="M0,0 L137,0 L161,2 L186,8 L202,14 L216,22 L227,31 L236,40 L246,55 L254,72 L259,87 L264,112 L267,140 L267,208 L263,244 L259,265 L251,289 L243,305 L234,318 L227,326 L216,335 L205,342 L190,349 L179,353 L159,357 L145,359 L0,359 Z M58,51 L58,308 L135,308 L157,303 L171,296 L181,288 L190,276 L197,261 L203,239 L205,228 L207,196 L207,141 L204,115 L199,96 L194,84 L187,74 L178,65 L164,57 L151,53 L137,51 Z " fill="#F4FCF5" transform="translate(373,334)"/>
    <path d="M0,0 L6,1 L35,13 L82,32 L131,52 L148,59 L148,71 L146,89 L140,112 L133,128 L126,138 L121,144 L108,153 L96,158 L77,162 L0,162 Z " fill="#23AC35" transform="translate(431,480)"/>
    <path d="M0,0 L79,0 L96,3 L106,6 L117,12 L127,21 L133,28 L140,42 L145,59 L148,79 L149,90 L149,145 L148,154 L138,151 L102,136 L50,115 L8,98 L0,95 Z " fill="#45CE55" transform="translate(431,385)"/>
    <path d="M0,0 Z M-1,1 Z M-2,2 Z M-3,3 Z M-4,4 Z M-5,5 Z M-6,6 Z M-7,7 Z M-8,8 Z M-9,9 Z M-10,10 Z M-11,11 Z M-12,12 Z M-13,13 Z M-14,14 Z M-15,15 Z M-16,16 Z M-17,17 Z M-18,18 Z M-19,19 Z M-20,20 Z M-21,21 Z M-22,22 Z M-23,23 Z M-24,24 Z M-25,25 Z M-26,26 Z M-27,27 Z M-28,28 Z M-29,29 Z M-30,30 Z M-31,31 Z M-32,32 Z M-33,33 Z M-34,34 Z M-35,35 Z M-36,36 Z M-37,37 Z M-38,38 Z M-39,39 Z M-40,40 Z M-41,41 Z M-42,42 Z M-43,43 Z M-44,44 Z M-45,45 Z M-46,46 Z M-47,47 Z M-48,48 Z M-49,49 Z M-50,50 Z M-51,51 Z M-52,52 Z M-53,53 Z M-54,54 Z M-55,55 Z M-56,56 Z M-57,57 Z M-58,58 Z M-59,59 Z M-60,60 Z M-61,61 Z M-62,62 Z M-63,63 Z M-64,64 Z M-65,65 Z M-66,66 Z M-67,67 Z M-68,68 Z M-69,69 Z M-70,70 Z M-71,71 Z M-72,72 Z M-73,73 Z M-74,74 Z M-75,75 Z M-76,76 Z M-77,77 Z M-78,78 Z M-79,79 Z M-80,80 Z M-81,81 Z M-82,82 Z M-83,83 Z M-84,84 Z M-85,85 Z M-86,86 Z M-87,87 Z M-88,88 Z M-89,89 Z M-90,90 Z M-91,91 Z M-92,92 Z M-93,93 Z M-94,94 Z M-95,95 Z M-96,96 Z M-97,97 Z M-98,98 Z M-99,99 Z M-100,100 Z M-101,101 Z M-102,102 Z M-103,103 Z M-104,104 Z M-105,105 Z M-106,106 Z M-107,107 Z M-108,108 Z M-109,109 Z M-110,110 Z M-111,111 Z M-112,112 Z M-113,113 Z M-114,114 Z M-115,115 Z M-116,116 Z M-117,117 Z M-118,118 Z M-119,119 Z M-120,120 Z M-121,121 Z M-122,122 Z M-123,123 Z M-124,124 Z M-125,125 Z M-126,126 Z M-127,127 Z M-128,128 Z M-129,129 Z M-130,130 Z M-131,131 Z M-132,132 Z M-133,133 Z M-134,134 Z M-135,135 Z M-136,136 Z M-137,137 Z M-138,138 Z M-139,139 Z M-140,140 Z M-141,141 Z M-142,142 Z M-143,143 Z M-144,144 Z M-145,145 Z M-146,146 Z M-147,147 Z M-148,148 Z M-149,149 Z M-150,150 Z M-151,151 Z M-152,152 Z M-153,153 Z M-154,154 Z M-155,155 Z " fill="#4FD05E" transform="translate(221,175)"/>
</svg>
