<?xml version="1.0" standalone="no"?><!DOCTYPE svg PUBLIC "-//W3C//DTD SVG 1.1//EN" "http://www.w3.org/Graphics/SVG/1.1/DTD/svg11.dtd"><svg t="1718595979492" class="icon" viewBox="0 0 1024 1024" version="1.1" xmlns="http://www.w3.org/2000/svg" p-id="1853" width="16" height="16" xmlns:xlink="http://www.w3.org/1999/xlink"><path d="M448 416V96a96.096 96.096 0 0 0-96-96H96a96.096 96.096 0 0 0-96 96v320a96.096 96.096 0 0 0 96 96h256a96.096 96.096 0 0 0 96-96zM64 416V96a32 32 0 0 1 32-32h256a32 32 0 0 1 32 32v320a32 32 0 0 1-32 32H96a32 32 0 0 1-32-32z" fill="#494d55" p-id="1854"></path><path d="M342.56 361.44a32.768 32.768 0 0 0-45.12 0A32 32 0 0 0 320 416a32 32 0 0 0 32-32 31.456 31.456 0 0 0-9.44-22.56zM992 608H608a32 32 0 0 0-32 32v256a32 32 0 0 0 32 32h160v32h-32a32 32 0 0 0 0 64h128a32 32 0 0 0 0-64h-32v-32h160a32 32 0 0 0 32-32V640a32 32 0 0 0-32-32z m-32 256H640V672h320zM713.376 310.624a32 32 0 0 0 45.248 0L800 269.248l41.376 41.376a32 32 0 0 0 45.248-45.248L845.248 224l41.376-41.376a32 32 0 1 0-45.248-45.248L800 178.752l-41.376-41.376a32 32 0 0 0-45.248 45.248L754.752 224l-41.376 41.376a32 32 0 0 0 0 45.248zM672 224a32 32 0 0 0-32-32h-96a32 32 0 0 0 0 64h96a32 32 0 0 0 32-32zM768 384v128a32 32 0 0 0 64 0v-128a32 32 0 0 0-64 0zM512 736H256V576a32 32 0 0 0-64 0v192a32 32 0 0 0 32 32h288a32 32 0 0 0 0-64zM352 224a128 128 0 1 0-238.144 64.896l-8.48 8.48a32 32 0 1 0 45.248 45.248l8.48-8.48A127.76 127.76 0 0 0 352 224z m-105.376-22.624a32 32 0 0 0-45.248 0l-38.992 38.976A62.8 62.8 0 0 1 160 224a64 64 0 1 1 64 64 63.024 63.024 0 0 1-16.368-2.384l38.992-38.992a32 32 0 0 0 0-45.248z" fill="#494d55" p-id="1855"></path></svg>